<?xml version="1.0" standalone="no"?>
<svg xmlns="http://www.w3.org/2000/svg" version="1.1" width="528" height="528">
	<!-- Created with https://api.qrserver.com (QR Code API, see goQR.me/api for information) -->
	<title>QR Code</title>
	<desc>https://apps.apple.com/us/app/sorane-music-practice/id6761887456?uo=4</desc>
	<rect style="fill:rgb(255, 255, 255);fill-opacity:1" x="0" y="0" width="528" height="528" />
	<g id="elements">
		<path style="fill:rgb(0, 0, 0)" d="M 0,0 l 16,0 0,16 -16,0 z M 16,0 l 16,0 0,16 -16,0 z M 32,0 l 16,0 0,16 -16,0 z M 48,0 l 16,0 0,16 -16,0 z M 64,0 l 16,0 0,16 -16,0 z M 80,0 l 16,0 0,16 -16,0 z M 96,0 l 16,0 0,16 -16,0 z M 160,0 l 16,0 0,16 -16,0 z M 192,0 l 16,0 0,16 -16,0 z M 224,0 l 16,0 0,16 -16,0 z M 240,0 l 16,0 0,16 -16,0 z M 304,0 l 16,0 0,16 -16,0 z M 320,0 l 16,0 0,16 -16,0 z M 336,0 l 16,0 0,16 -16,0 z M 352,0 l 16,0 0,16 -16,0 z M 368,0 l 16,0 0,16 -16,0 z M 416,0 l 16,0 0,16 -16,0 z M 432,0 l 16,0 0,16 -16,0 z M 448,0 l 16,0 0,16 -16,0 z M 464,0 l 16,0 0,16 -16,0 z M 480,0 l 16,0 0,16 -16,0 z M 496,0 l 16,0 0,16 -16,0 z M 512,0 l 16,0 0,16 -16,0 z M 0,16 l 16,0 0,16 -16,0 z M 96,16 l 16,0 0,16 -16,0 z M 128,16 l 16,0 0,16 -16,0 z M 160,16 l 16,0 0,16 -16,0 z M 208,16 l 16,0 0,16 -16,0 z M 224,16 l 16,0 0,16 -16,0 z M 288,16 l 16,0 0,16 -16,0 z M 320,16 l 16,0 0,16 -16,0 z M 336,16 l 16,0 0,16 -16,0 z M 416,16 l 16,0 0,16 -16,0 z M 512,16 l 16,0 0,16 -16,0 z M 0,32 l 16,0 0,16 -16,0 z M 32,32 l 16,0 0,16 -16,0 z M 48,32 l 16,0 0,16 -16,0 z M 64,32 l 16,0 0,16 -16,0 z M 96,32 l 16,0 0,16 -16,0 z M 192,32 l 16,0 0,16 -16,0 z M 256,32 l 16,0 0,16 -16,0 z M 288,32 l 16,0 0,16 -16,0 z M 320,32 l 16,0 0,16 -16,0 z M 336,32 l 16,0 0,16 -16,0 z M 384,32 l 16,0 0,16 -16,0 z M 416,32 l 16,0 0,16 -16,0 z M 448,32 l 16,0 0,16 -16,0 z M 464,32 l 16,0 0,16 -16,0 z M 480,32 l 16,0 0,16 -16,0 z M 512,32 l 16,0 0,16 -16,0 z M 0,48 l 16,0 0,16 -16,0 z M 32,48 l 16,0 0,16 -16,0 z M 48,48 l 16,0 0,16 -16,0 z M 64,48 l 16,0 0,16 -16,0 z M 96,48 l 16,0 0,16 -16,0 z M 128,48 l 16,0 0,16 -16,0 z M 144,48 l 16,0 0,16 -16,0 z M 160,48 l 16,0 0,16 -16,0 z M 192,48 l 16,0 0,16 -16,0 z M 224,48 l 16,0 0,16 -16,0 z M 272,48 l 16,0 0,16 -16,0 z M 304,48 l 16,0 0,16 -16,0 z M 352,48 l 16,0 0,16 -16,0 z M 384,48 l 16,0 0,16 -16,0 z M 416,48 l 16,0 0,16 -16,0 z M 448,48 l 16,0 0,16 -16,0 z M 464,48 l 16,0 0,16 -16,0 z M 480,48 l 16,0 0,16 -16,0 z M 512,48 l 16,0 0,16 -16,0 z M 0,64 l 16,0 0,16 -16,0 z M 32,64 l 16,0 0,16 -16,0 z M 48,64 l 16,0 0,16 -16,0 z M 64,64 l 16,0 0,16 -16,0 z M 96,64 l 16,0 0,16 -16,0 z M 144,64 l 16,0 0,16 -16,0 z M 304,64 l 16,0 0,16 -16,0 z M 336,64 l 16,0 0,16 -16,0 z M 352,64 l 16,0 0,16 -16,0 z M 368,64 l 16,0 0,16 -16,0 z M 416,64 l 16,0 0,16 -16,0 z M 448,64 l 16,0 0,16 -16,0 z M 464,64 l 16,0 0,16 -16,0 z M 480,64 l 16,0 0,16 -16,0 z M 512,64 l 16,0 0,16 -16,0 z M 0,80 l 16,0 0,16 -16,0 z M 96,80 l 16,0 0,16 -16,0 z M 128,80 l 16,0 0,16 -16,0 z M 144,80 l 16,0 0,16 -16,0 z M 176,80 l 16,0 0,16 -16,0 z M 192,80 l 16,0 0,16 -16,0 z M 240,80 l 16,0 0,16 -16,0 z M 256,80 l 16,0 0,16 -16,0 z M 272,80 l 16,0 0,16 -16,0 z M 288,80 l 16,0 0,16 -16,0 z M 320,80 l 16,0 0,16 -16,0 z M 336,80 l 16,0 0,16 -16,0 z M 416,80 l 16,0 0,16 -16,0 z M 512,80 l 16,0 0,16 -16,0 z M 0,96 l 16,0 0,16 -16,0 z M 16,96 l 16,0 0,16 -16,0 z M 32,96 l 16,0 0,16 -16,0 z M 48,96 l 16,0 0,16 -16,0 z M 64,96 l 16,0 0,16 -16,0 z M 80,96 l 16,0 0,16 -16,0 z M 96,96 l 16,0 0,16 -16,0 z M 128,96 l 16,0 0,16 -16,0 z M 160,96 l 16,0 0,16 -16,0 z M 192,96 l 16,0 0,16 -16,0 z M 224,96 l 16,0 0,16 -16,0 z M 256,96 l 16,0 0,16 -16,0 z M 288,96 l 16,0 0,16 -16,0 z M 320,96 l 16,0 0,16 -16,0 z M 352,96 l 16,0 0,16 -16,0 z M 384,96 l 16,0 0,16 -16,0 z M 416,96 l 16,0 0,16 -16,0 z M 432,96 l 16,0 0,16 -16,0 z M 448,96 l 16,0 0,16 -16,0 z M 464,96 l 16,0 0,16 -16,0 z M 480,96 l 16,0 0,16 -16,0 z M 496,96 l 16,0 0,16 -16,0 z M 512,96 l 16,0 0,16 -16,0 z M 144,112 l 16,0 0,16 -16,0 z M 160,112 l 16,0 0,16 -16,0 z M 176,112 l 16,0 0,16 -16,0 z M 256,112 l 16,0 0,16 -16,0 z M 288,112 l 16,0 0,16 -16,0 z M 304,112 l 16,0 0,16 -16,0 z M 336,112 l 16,0 0,16 -16,0 z M 368,112 l 16,0 0,16 -16,0 z M 0,128 l 16,0 0,16 -16,0 z M 16,128 l 16,0 0,16 -16,0 z M 32,128 l 16,0 0,16 -16,0 z M 48,128 l 16,0 0,16 -16,0 z M 64,128 l 16,0 0,16 -16,0 z M 96,128 l 16,0 0,16 -16,0 z M 112,128 l 16,0 0,16 -16,0 z M 128,128 l 16,0 0,16 -16,0 z M 144,128 l 16,0 0,16 -16,0 z M 176,128 l 16,0 0,16 -16,0 z M 224,128 l 16,0 0,16 -16,0 z M 272,128 l 16,0 0,16 -16,0 z M 368,128 l 16,0 0,16 -16,0 z M 384,128 l 16,0 0,16 -16,0 z M 400,128 l 16,0 0,16 -16,0 z M 432,128 l 16,0 0,16 -16,0 z M 464,128 l 16,0 0,16 -16,0 z M 496,128 l 16,0 0,16 -16,0 z M 0,144 l 16,0 0,16 -16,0 z M 32,144 l 16,0 0,16 -16,0 z M 48,144 l 16,0 0,16 -16,0 z M 80,144 l 16,0 0,16 -16,0 z M 112,144 l 16,0 0,16 -16,0 z M 160,144 l 16,0 0,16 -16,0 z M 192,144 l 16,0 0,16 -16,0 z M 224,144 l 16,0 0,16 -16,0 z M 288,144 l 16,0 0,16 -16,0 z M 304,144 l 16,0 0,16 -16,0 z M 320,144 l 16,0 0,16 -16,0 z M 368,144 l 16,0 0,16 -16,0 z M 384,144 l 16,0 0,16 -16,0 z M 400,144 l 16,0 0,16 -16,0 z M 416,144 l 16,0 0,16 -16,0 z M 480,144 l 16,0 0,16 -16,0 z M 496,144 l 16,0 0,16 -16,0 z M 512,144 l 16,0 0,16 -16,0 z M 0,160 l 16,0 0,16 -16,0 z M 16,160 l 16,0 0,16 -16,0 z M 32,160 l 16,0 0,16 -16,0 z M 64,160 l 16,0 0,16 -16,0 z M 80,160 l 16,0 0,16 -16,0 z M 96,160 l 16,0 0,16 -16,0 z M 160,160 l 16,0 0,16 -16,0 z M 208,160 l 16,0 0,16 -16,0 z M 240,160 l 16,0 0,16 -16,0 z M 288,160 l 16,0 0,16 -16,0 z M 320,160 l 16,0 0,16 -16,0 z M 352,160 l 16,0 0,16 -16,0 z M 432,160 l 16,0 0,16 -16,0 z M 464,160 l 16,0 0,16 -16,0 z M 496,160 l 16,0 0,16 -16,0 z M 16,176 l 16,0 0,16 -16,0 z M 32,176 l 16,0 0,16 -16,0 z M 112,176 l 16,0 0,16 -16,0 z M 192,176 l 16,0 0,16 -16,0 z M 208,176 l 16,0 0,16 -16,0 z M 224,176 l 16,0 0,16 -16,0 z M 240,176 l 16,0 0,16 -16,0 z M 256,176 l 16,0 0,16 -16,0 z M 336,176 l 16,0 0,16 -16,0 z M 352,176 l 16,0 0,16 -16,0 z M 368,176 l 16,0 0,16 -16,0 z M 384,176 l 16,0 0,16 -16,0 z M 432,176 l 16,0 0,16 -16,0 z M 480,176 l 16,0 0,16 -16,0 z M 0,192 l 16,0 0,16 -16,0 z M 16,192 l 16,0 0,16 -16,0 z M 32,192 l 16,0 0,16 -16,0 z M 48,192 l 16,0 0,16 -16,0 z M 80,192 l 16,0 0,16 -16,0 z M 96,192 l 16,0 0,16 -16,0 z M 112,192 l 16,0 0,16 -16,0 z M 128,192 l 16,0 0,16 -16,0 z M 144,192 l 16,0 0,16 -16,0 z M 160,192 l 16,0 0,16 -16,0 z M 192,192 l 16,0 0,16 -16,0 z M 208,192 l 16,0 0,16 -16,0 z M 224,192 l 16,0 0,16 -16,0 z M 240,192 l 16,0 0,16 -16,0 z M 272,192 l 16,0 0,16 -16,0 z M 304,192 l 16,0 0,16 -16,0 z M 352,192 l 16,0 0,16 -16,0 z M 400,192 l 16,0 0,16 -16,0 z M 448,192 l 16,0 0,16 -16,0 z M 464,192 l 16,0 0,16 -16,0 z M 16,208 l 16,0 0,16 -16,0 z M 224,208 l 16,0 0,16 -16,0 z M 288,208 l 16,0 0,16 -16,0 z M 304,208 l 16,0 0,16 -16,0 z M 320,208 l 16,0 0,16 -16,0 z M 336,208 l 16,0 0,16 -16,0 z M 352,208 l 16,0 0,16 -16,0 z M 368,208 l 16,0 0,16 -16,0 z M 416,208 l 16,0 0,16 -16,0 z M 496,208 l 16,0 0,16 -16,0 z M 512,208 l 16,0 0,16 -16,0 z M 0,224 l 16,0 0,16 -16,0 z M 32,224 l 16,0 0,16 -16,0 z M 64,224 l 16,0 0,16 -16,0 z M 96,224 l 16,0 0,16 -16,0 z M 128,224 l 16,0 0,16 -16,0 z M 176,224 l 16,0 0,16 -16,0 z M 192,224 l 16,0 0,16 -16,0 z M 208,224 l 16,0 0,16 -16,0 z M 224,224 l 16,0 0,16 -16,0 z M 272,224 l 16,0 0,16 -16,0 z M 288,224 l 16,0 0,16 -16,0 z M 320,224 l 16,0 0,16 -16,0 z M 400,224 l 16,0 0,16 -16,0 z M 416,224 l 16,0 0,16 -16,0 z M 496,224 l 16,0 0,16 -16,0 z M 0,240 l 16,0 0,16 -16,0 z M 16,240 l 16,0 0,16 -16,0 z M 64,240 l 16,0 0,16 -16,0 z M 160,240 l 16,0 0,16 -16,0 z M 176,240 l 16,0 0,16 -16,0 z M 224,240 l 16,0 0,16 -16,0 z M 304,240 l 16,0 0,16 -16,0 z M 336,240 l 16,0 0,16 -16,0 z M 352,240 l 16,0 0,16 -16,0 z M 432,240 l 16,0 0,16 -16,0 z M 480,240 l 16,0 0,16 -16,0 z M 0,256 l 16,0 0,16 -16,0 z M 16,256 l 16,0 0,16 -16,0 z M 32,256 l 16,0 0,16 -16,0 z M 80,256 l 16,0 0,16 -16,0 z M 96,256 l 16,0 0,16 -16,0 z M 128,256 l 16,0 0,16 -16,0 z M 144,256 l 16,0 0,16 -16,0 z M 160,256 l 16,0 0,16 -16,0 z M 176,256 l 16,0 0,16 -16,0 z M 224,256 l 16,0 0,16 -16,0 z M 272,256 l 16,0 0,16 -16,0 z M 320,256 l 16,0 0,16 -16,0 z M 352,256 l 16,0 0,16 -16,0 z M 400,256 l 16,0 0,16 -16,0 z M 432,256 l 16,0 0,16 -16,0 z M 448,256 l 16,0 0,16 -16,0 z M 496,256 l 16,0 0,16 -16,0 z M 0,272 l 16,0 0,16 -16,0 z M 32,272 l 16,0 0,16 -16,0 z M 80,272 l 16,0 0,16 -16,0 z M 128,272 l 16,0 0,16 -16,0 z M 144,272 l 16,0 0,16 -16,0 z M 160,272 l 16,0 0,16 -16,0 z M 192,272 l 16,0 0,16 -16,0 z M 224,272 l 16,0 0,16 -16,0 z M 304,272 l 16,0 0,16 -16,0 z M 320,272 l 16,0 0,16 -16,0 z M 368,272 l 16,0 0,16 -16,0 z M 416,272 l 16,0 0,16 -16,0 z M 464,272 l 16,0 0,16 -16,0 z M 496,272 l 16,0 0,16 -16,0 z M 512,272 l 16,0 0,16 -16,0 z M 0,288 l 16,0 0,16 -16,0 z M 16,288 l 16,0 0,16 -16,0 z M 32,288 l 16,0 0,16 -16,0 z M 48,288 l 16,0 0,16 -16,0 z M 80,288 l 16,0 0,16 -16,0 z M 96,288 l 16,0 0,16 -16,0 z M 112,288 l 16,0 0,16 -16,0 z M 128,288 l 16,0 0,16 -16,0 z M 144,288 l 16,0 0,16 -16,0 z M 160,288 l 16,0 0,16 -16,0 z M 208,288 l 16,0 0,16 -16,0 z M 224,288 l 16,0 0,16 -16,0 z M 240,288 l 16,0 0,16 -16,0 z M 320,288 l 16,0 0,16 -16,0 z M 352,288 l 16,0 0,16 -16,0 z M 400,288 l 16,0 0,16 -16,0 z M 432,288 l 16,0 0,16 -16,0 z M 448,288 l 16,0 0,16 -16,0 z M 464,288 l 16,0 0,16 -16,0 z M 496,288 l 16,0 0,16 -16,0 z M 16,304 l 16,0 0,16 -16,0 z M 32,304 l 16,0 0,16 -16,0 z M 48,304 l 16,0 0,16 -16,0 z M 112,304 l 16,0 0,16 -16,0 z M 144,304 l 16,0 0,16 -16,0 z M 160,304 l 16,0 0,16 -16,0 z M 192,304 l 16,0 0,16 -16,0 z M 208,304 l 16,0 0,16 -16,0 z M 240,304 l 16,0 0,16 -16,0 z M 288,304 l 16,0 0,16 -16,0 z M 320,304 l 16,0 0,16 -16,0 z M 336,304 l 16,0 0,16 -16,0 z M 352,304 l 16,0 0,16 -16,0 z M 368,304 l 16,0 0,16 -16,0 z M 400,304 l 16,0 0,16 -16,0 z M 448,304 l 16,0 0,16 -16,0 z M 480,304 l 16,0 0,16 -16,0 z M 0,320 l 16,0 0,16 -16,0 z M 16,320 l 16,0 0,16 -16,0 z M 80,320 l 16,0 0,16 -16,0 z M 96,320 l 16,0 0,16 -16,0 z M 144,320 l 16,0 0,16 -16,0 z M 192,320 l 16,0 0,16 -16,0 z M 208,320 l 16,0 0,16 -16,0 z M 224,320 l 16,0 0,16 -16,0 z M 240,320 l 16,0 0,16 -16,0 z M 256,320 l 16,0 0,16 -16,0 z M 272,320 l 16,0 0,16 -16,0 z M 320,320 l 16,0 0,16 -16,0 z M 352,320 l 16,0 0,16 -16,0 z M 368,320 l 16,0 0,16 -16,0 z M 384,320 l 16,0 0,16 -16,0 z M 432,320 l 16,0 0,16 -16,0 z M 448,320 l 16,0 0,16 -16,0 z M 496,320 l 16,0 0,16 -16,0 z M 0,336 l 16,0 0,16 -16,0 z M 16,336 l 16,0 0,16 -16,0 z M 48,336 l 16,0 0,16 -16,0 z M 80,336 l 16,0 0,16 -16,0 z M 112,336 l 16,0 0,16 -16,0 z M 128,336 l 16,0 0,16 -16,0 z M 160,336 l 16,0 0,16 -16,0 z M 224,336 l 16,0 0,16 -16,0 z M 240,336 l 16,0 0,16 -16,0 z M 272,336 l 16,0 0,16 -16,0 z M 288,336 l 16,0 0,16 -16,0 z M 304,336 l 16,0 0,16 -16,0 z M 320,336 l 16,0 0,16 -16,0 z M 336,336 l 16,0 0,16 -16,0 z M 352,336 l 16,0 0,16 -16,0 z M 368,336 l 16,0 0,16 -16,0 z M 384,336 l 16,0 0,16 -16,0 z M 416,336 l 16,0 0,16 -16,0 z M 432,336 l 16,0 0,16 -16,0 z M 464,336 l 16,0 0,16 -16,0 z M 496,336 l 16,0 0,16 -16,0 z M 512,336 l 16,0 0,16 -16,0 z M 0,352 l 16,0 0,16 -16,0 z M 32,352 l 16,0 0,16 -16,0 z M 48,352 l 16,0 0,16 -16,0 z M 64,352 l 16,0 0,16 -16,0 z M 96,352 l 16,0 0,16 -16,0 z M 128,352 l 16,0 0,16 -16,0 z M 176,352 l 16,0 0,16 -16,0 z M 192,352 l 16,0 0,16 -16,0 z M 208,352 l 16,0 0,16 -16,0 z M 240,352 l 16,0 0,16 -16,0 z M 288,352 l 16,0 0,16 -16,0 z M 320,352 l 16,0 0,16 -16,0 z M 400,352 l 16,0 0,16 -16,0 z M 416,352 l 16,0 0,16 -16,0 z M 448,352 l 16,0 0,16 -16,0 z M 464,352 l 16,0 0,16 -16,0 z M 496,352 l 16,0 0,16 -16,0 z M 0,368 l 16,0 0,16 -16,0 z M 32,368 l 16,0 0,16 -16,0 z M 112,368 l 16,0 0,16 -16,0 z M 160,368 l 16,0 0,16 -16,0 z M 176,368 l 16,0 0,16 -16,0 z M 208,368 l 16,0 0,16 -16,0 z M 224,368 l 16,0 0,16 -16,0 z M 240,368 l 16,0 0,16 -16,0 z M 256,368 l 16,0 0,16 -16,0 z M 320,368 l 16,0 0,16 -16,0 z M 336,368 l 16,0 0,16 -16,0 z M 416,368 l 16,0 0,16 -16,0 z M 432,368 l 16,0 0,16 -16,0 z M 464,368 l 16,0 0,16 -16,0 z M 480,368 l 16,0 0,16 -16,0 z M 0,384 l 16,0 0,16 -16,0 z M 80,384 l 16,0 0,16 -16,0 z M 96,384 l 16,0 0,16 -16,0 z M 144,384 l 16,0 0,16 -16,0 z M 176,384 l 16,0 0,16 -16,0 z M 224,384 l 16,0 0,16 -16,0 z M 240,384 l 16,0 0,16 -16,0 z M 272,384 l 16,0 0,16 -16,0 z M 304,384 l 16,0 0,16 -16,0 z M 352,384 l 16,0 0,16 -16,0 z M 368,384 l 16,0 0,16 -16,0 z M 384,384 l 16,0 0,16 -16,0 z M 400,384 l 16,0 0,16 -16,0 z M 416,384 l 16,0 0,16 -16,0 z M 432,384 l 16,0 0,16 -16,0 z M 448,384 l 16,0 0,16 -16,0 z M 512,384 l 16,0 0,16 -16,0 z M 128,400 l 16,0 0,16 -16,0 z M 144,400 l 16,0 0,16 -16,0 z M 160,400 l 16,0 0,16 -16,0 z M 192,400 l 16,0 0,16 -16,0 z M 224,400 l 16,0 0,16 -16,0 z M 256,400 l 16,0 0,16 -16,0 z M 288,400 l 16,0 0,16 -16,0 z M 304,400 l 16,0 0,16 -16,0 z M 320,400 l 16,0 0,16 -16,0 z M 336,400 l 16,0 0,16 -16,0 z M 384,400 l 16,0 0,16 -16,0 z M 448,400 l 16,0 0,16 -16,0 z M 480,400 l 16,0 0,16 -16,0 z M 512,400 l 16,0 0,16 -16,0 z M 0,416 l 16,0 0,16 -16,0 z M 16,416 l 16,0 0,16 -16,0 z M 32,416 l 16,0 0,16 -16,0 z M 48,416 l 16,0 0,16 -16,0 z M 64,416 l 16,0 0,16 -16,0 z M 80,416 l 16,0 0,16 -16,0 z M 96,416 l 16,0 0,16 -16,0 z M 128,416 l 16,0 0,16 -16,0 z M 144,416 l 16,0 0,16 -16,0 z M 160,416 l 16,0 0,16 -16,0 z M 208,416 l 16,0 0,16 -16,0 z M 240,416 l 16,0 0,16 -16,0 z M 256,416 l 16,0 0,16 -16,0 z M 272,416 l 16,0 0,16 -16,0 z M 288,416 l 16,0 0,16 -16,0 z M 320,416 l 16,0 0,16 -16,0 z M 336,416 l 16,0 0,16 -16,0 z M 368,416 l 16,0 0,16 -16,0 z M 384,416 l 16,0 0,16 -16,0 z M 416,416 l 16,0 0,16 -16,0 z M 448,416 l 16,0 0,16 -16,0 z M 464,416 l 16,0 0,16 -16,0 z M 480,416 l 16,0 0,16 -16,0 z M 496,416 l 16,0 0,16 -16,0 z M 0,432 l 16,0 0,16 -16,0 z M 96,432 l 16,0 0,16 -16,0 z M 192,432 l 16,0 0,16 -16,0 z M 224,432 l 16,0 0,16 -16,0 z M 240,432 l 16,0 0,16 -16,0 z M 320,432 l 16,0 0,16 -16,0 z M 336,432 l 16,0 0,16 -16,0 z M 352,432 l 16,0 0,16 -16,0 z M 368,432 l 16,0 0,16 -16,0 z M 384,432 l 16,0 0,16 -16,0 z M 448,432 l 16,0 0,16 -16,0 z M 464,432 l 16,0 0,16 -16,0 z M 480,432 l 16,0 0,16 -16,0 z M 512,432 l 16,0 0,16 -16,0 z M 0,448 l 16,0 0,16 -16,0 z M 32,448 l 16,0 0,16 -16,0 z M 48,448 l 16,0 0,16 -16,0 z M 64,448 l 16,0 0,16 -16,0 z M 96,448 l 16,0 0,16 -16,0 z M 128,448 l 16,0 0,16 -16,0 z M 144,448 l 16,0 0,16 -16,0 z M 160,448 l 16,0 0,16 -16,0 z M 192,448 l 16,0 0,16 -16,0 z M 224,448 l 16,0 0,16 -16,0 z M 272,448 l 16,0 0,16 -16,0 z M 304,448 l 16,0 0,16 -16,0 z M 352,448 l 16,0 0,16 -16,0 z M 384,448 l 16,0 0,16 -16,0 z M 400,448 l 16,0 0,16 -16,0 z M 416,448 l 16,0 0,16 -16,0 z M 432,448 l 16,0 0,16 -16,0 z M 448,448 l 16,0 0,16 -16,0 z M 464,448 l 16,0 0,16 -16,0 z M 496,448 l 16,0 0,16 -16,0 z M 0,464 l 16,0 0,16 -16,0 z M 32,464 l 16,0 0,16 -16,0 z M 48,464 l 16,0 0,16 -16,0 z M 64,464 l 16,0 0,16 -16,0 z M 96,464 l 16,0 0,16 -16,0 z M 128,464 l 16,0 0,16 -16,0 z M 144,464 l 16,0 0,16 -16,0 z M 160,464 l 16,0 0,16 -16,0 z M 256,464 l 16,0 0,16 -16,0 z M 288,464 l 16,0 0,16 -16,0 z M 304,464 l 16,0 0,16 -16,0 z M 368,464 l 16,0 0,16 -16,0 z M 400,464 l 16,0 0,16 -16,0 z M 448,464 l 16,0 0,16 -16,0 z M 480,464 l 16,0 0,16 -16,0 z M 496,464 l 16,0 0,16 -16,0 z M 512,464 l 16,0 0,16 -16,0 z M 0,480 l 16,0 0,16 -16,0 z M 32,480 l 16,0 0,16 -16,0 z M 48,480 l 16,0 0,16 -16,0 z M 64,480 l 16,0 0,16 -16,0 z M 96,480 l 16,0 0,16 -16,0 z M 128,480 l 16,0 0,16 -16,0 z M 144,480 l 16,0 0,16 -16,0 z M 176,480 l 16,0 0,16 -16,0 z M 192,480 l 16,0 0,16 -16,0 z M 240,480 l 16,0 0,16 -16,0 z M 256,480 l 16,0 0,16 -16,0 z M 320,480 l 16,0 0,16 -16,0 z M 352,480 l 16,0 0,16 -16,0 z M 368,480 l 16,0 0,16 -16,0 z M 416,480 l 16,0 0,16 -16,0 z M 480,480 l 16,0 0,16 -16,0 z M 0,496 l 16,0 0,16 -16,0 z M 96,496 l 16,0 0,16 -16,0 z M 128,496 l 16,0 0,16 -16,0 z M 144,496 l 16,0 0,16 -16,0 z M 160,496 l 16,0 0,16 -16,0 z M 176,496 l 16,0 0,16 -16,0 z M 256,496 l 16,0 0,16 -16,0 z M 320,496 l 16,0 0,16 -16,0 z M 336,496 l 16,0 0,16 -16,0 z M 432,496 l 16,0 0,16 -16,0 z M 464,496 l 16,0 0,16 -16,0 z M 480,496 l 16,0 0,16 -16,0 z M 0,512 l 16,0 0,16 -16,0 z M 16,512 l 16,0 0,16 -16,0 z M 32,512 l 16,0 0,16 -16,0 z M 48,512 l 16,0 0,16 -16,0 z M 64,512 l 16,0 0,16 -16,0 z M 80,512 l 16,0 0,16 -16,0 z M 96,512 l 16,0 0,16 -16,0 z M 128,512 l 16,0 0,16 -16,0 z M 160,512 l 16,0 0,16 -16,0 z M 176,512 l 16,0 0,16 -16,0 z M 192,512 l 16,0 0,16 -16,0 z M 272,512 l 16,0 0,16 -16,0 z M 288,512 l 16,0 0,16 -16,0 z M 352,512 l 16,0 0,16 -16,0 z M 368,512 l 16,0 0,16 -16,0 z M 384,512 l 16,0 0,16 -16,0 z M 400,512 l 16,0 0,16 -16,0 z M 416,512 l 16,0 0,16 -16,0 z M 432,512 l 16,0 0,16 -16,0 z M 464,512 l 16,0 0,16 -16,0 z M 496,512 l 16,0 0,16 -16,0 z " />
	</g>
</svg>
